<svg width="163" height="45" viewBox="0 0 163 45" fill="none" xmlns="http://www.w3.org/2000/svg">
<path d="M20.6074 4.18985C24.9449 4.82485 28.9015 7.02088 31.7349 10.3658C34.5682 13.7108 36.0835 17.9747 35.9964 22.3576C35.9094 26.7404 34.2259 30.9408 31.2619 34.1706C28.2979 37.4003 24.2571 39.4375 19.8979 39.8997L18.5927 27.5902C19.9541 27.4458 21.2161 26.8096 22.1418 25.8009C23.0674 24.7923 23.5932 23.4804 23.6204 22.1117C23.6476 20.7429 23.1743 19.4112 22.2895 18.3666C21.4046 17.3219 20.1689 16.6361 18.8143 16.4378L20.6074 4.18985Z" fill="#1D2609"/>
<path d="M13.988 12.536V31.148H19.444C21.7613 31.148 23.5507 30.268 24.812 28.508C26.0733 26.748 26.704 24.548 26.704 21.908C26.704 19.2387 26.0733 17.0093 24.812 15.22C23.5507 13.4307 21.7613 12.536 19.444 12.536H13.988ZM19.444 37H7.564V6.684H19.444C23.6973 6.684 27.0413 8.12133 29.476 10.996C31.9107 13.8413 33.128 17.4787 33.128 21.908C33.128 26.3373 31.9107 29.96 29.476 32.776C27.0413 35.592 23.6973 37 19.444 37Z" fill="#57731C"/>
<path d="M20.4361 4.16561C24.842 4.76743 28.8691 6.97882 31.7414 10.3735C34.6136 13.7683 36.1276 18.106 35.9916 22.5507C35.8555 26.9954 34.079 31.2325 31.0045 34.4452C27.93 37.6579 23.7751 39.6188 19.3407 39.95L18.6399 30.5677C20.7565 30.4097 22.7397 29.4737 24.2072 27.9402C25.6747 26.4068 26.5227 24.3844 26.5876 22.2629C26.6525 20.1414 25.9299 18.0709 24.5589 16.4506C23.188 14.8302 21.2657 13.7747 19.1628 13.4874L20.4361 4.16561Z" fill="#57731C"/>
<path d="M58.836 23.16C58.836 23.7467 58.8067 24.3627 58.748 25.008H43.084C43.26 26.3573 43.8613 27.428 44.888 28.22C45.944 29.012 47.2347 29.408 48.76 29.408C49.8453 29.408 50.8573 29.188 51.796 28.748C52.7347 28.2787 53.4387 27.6187 53.908 26.768C54.5533 27.12 55.9173 27.8533 58 28.968C57.12 30.64 55.8147 31.8867 54.084 32.708C52.3533 33.5293 50.4613 33.94 48.408 33.94C45.416 33.94 42.8933 32.9427 40.84 30.948C38.7867 28.924 37.76 26.328 37.76 23.16C37.76 19.992 38.7867 17.4253 40.84 15.46C42.8933 13.4947 45.416 12.512 48.408 12.512C51.4 12.512 53.8787 13.4947 55.844 15.46C57.8387 17.4253 58.836 19.992 58.836 23.16ZM43.04 21.356H53.6C53.3947 19.9773 52.8227 18.9067 51.884 18.144C50.9453 17.3813 49.8013 17 48.452 17C47.0147 17 45.7973 17.396 44.8 18.188C43.832 18.9507 43.2453 20.0067 43.04 21.356ZM65.2923 30.904C63.1216 28.88 62.0363 26.2987 62.0363 23.16C62.0363 20.0213 63.1216 17.4693 65.2923 15.504C67.463 13.5093 70.0736 12.512 73.1243 12.512C74.855 12.512 76.4683 12.864 77.9643 13.568C79.4603 14.272 80.6923 15.2547 81.6603 16.516L77.3923 19.728C76.395 18.3787 74.9723 17.704 73.1243 17.704C71.5696 17.704 70.2203 18.2173 69.0763 19.244C67.9323 20.2413 67.3603 21.5467 67.3603 23.16C67.3603 24.7733 67.9323 26.1227 69.0763 27.208C70.2203 28.264 71.5696 28.792 73.1243 28.792C74.9723 28.792 76.395 28.1027 77.3923 26.724L81.7043 29.892C80.7363 31.1827 79.4896 32.18 77.9643 32.884C76.4683 33.588 74.855 33.94 73.1243 33.94C70.0736 33.94 67.463 32.928 65.2923 30.904ZM91.5029 27.164C92.5296 28.1613 93.8056 28.66 95.3309 28.66C96.8562 28.66 98.1322 28.1613 99.1589 27.164C100.186 26.1373 100.699 24.8027 100.699 23.16C100.699 21.576 100.186 20.2853 99.1589 19.288C98.1322 18.2907 96.8562 17.792 95.3309 17.792C93.8056 17.792 92.5296 18.2907 91.5029 19.288C90.4762 20.2853 89.9629 21.576 89.9629 23.16C89.9629 24.8027 90.4762 26.1373 91.5029 27.164ZM102.899 30.904C100.846 32.8987 98.3229 33.896 95.3309 33.896C92.3389 33.896 89.8016 32.8987 87.7189 30.904C85.6656 28.9093 84.6389 26.328 84.6389 23.16C84.6389 19.992 85.6656 17.4253 87.7189 15.46C89.8016 13.4947 92.3389 12.512 95.3309 12.512C98.3229 12.512 100.846 13.4947 102.899 15.46C104.982 17.4253 106.023 19.992 106.023 23.16C106.023 26.328 104.982 28.9093 102.899 30.904ZM116.205 26.24V33.5H110.837V12.952H116.205V17.792C116.703 16.032 117.481 14.712 118.537 13.832C119.593 12.952 120.751 12.512 122.013 12.512C123.333 12.512 124.462 12.7613 125.401 13.26L124.477 18.1C123.626 17.7187 122.585 17.528 121.353 17.528C117.921 17.528 116.205 20.432 116.205 26.24ZM134.251 12.952V33.5H128.927V12.952H134.251ZM129.147 7.32C128.472 6.67466 128.135 5.89733 128.135 4.988C128.135 4.07867 128.472 3.316 129.147 2.7C129.851 2.084 130.672 1.776 131.611 1.776C132.549 1.776 133.341 2.084 133.987 2.7C134.661 3.316 134.999 4.07867 134.999 4.988C134.999 5.89733 134.661 6.67466 133.987 7.32C133.341 7.936 132.549 8.244 131.611 8.244C130.643 8.244 129.821 7.936 129.147 7.32ZM145.901 27.164C146.928 28.1613 148.204 28.66 149.729 28.66C151.255 28.66 152.531 28.1613 153.557 27.164C154.584 26.1373 155.097 24.8027 155.097 23.16C155.097 21.576 154.584 20.2853 153.557 19.288C152.531 18.2907 151.255 17.792 149.729 17.792C148.204 17.792 146.928 18.2907 145.901 19.288C144.875 20.2853 144.361 21.576 144.361 23.16C144.361 24.8027 144.875 26.1373 145.901 27.164ZM157.297 30.904C155.244 32.8987 152.721 33.896 149.729 33.896C146.737 33.896 144.2 32.8987 142.117 30.904C140.064 28.9093 139.037 26.328 139.037 23.16C139.037 19.992 140.064 17.4253 142.117 15.46C144.2 13.4947 146.737 12.512 149.729 12.512C152.721 12.512 155.244 13.4947 157.297 15.46C159.38 17.4253 160.421 19.992 160.421 23.16C160.421 26.328 159.38 28.9093 157.297 30.904Z" fill="#1D2609"/>
</svg>
