<svg width="24" height="24" viewBox="0 0 24 24" fill="none" xmlns="http://www.w3.org/2000/svg">
<path fill-rule="evenodd" clip-rule="evenodd" d="M12.0008 0.800781C13.2379 0.800781 14.2408 1.80366 14.2408 3.04078V9.76078L20.9608 9.76078C22.1979 9.76078 23.2008 10.7637 23.2008 12.0008C23.2008 13.2379 22.1979 14.2408 20.9608 14.2408H14.2408V20.9608C14.2408 22.1979 13.2379 23.2008 12.0008 23.2008C10.7637 23.2008 9.76078 22.1979 9.76078 20.9608V14.2408H3.04078C1.80366 14.2408 0.800781 13.2379 0.800781 12.0008C0.800781 10.7637 1.80366 9.76078 3.04078 9.76078H9.76078V3.04078C9.76078 1.80366 10.7637 0.800781 12.0008 0.800781Z" fill="#57731C"/>
</svg>
