<svg width="18" height="18" viewBox="0 0 18 18" fill="none" xmlns="http://www.w3.org/2000/svg">
<path fill-rule="evenodd" clip-rule="evenodd" d="M3 0C2.50664 0 1.78887 0.139781 1.1657 0.588466C0.491533 1.07386 0 1.87408 0 3V16.5C0 17.3284 0.671574 18 1.5 18H16.5C17.3284 18 18 17.3284 18 16.5V14H15C14.5066 14 13.7889 13.8602 13.1657 13.4115C12.4915 12.9261 12 12.1259 12 11C12 9.87408 12.4915 9.07386 13.1657 8.58847C13.7889 8.13978 14.5066 8 15 8H18V5.5C18 4.67633 17.335 4 16.5018 4H16V1.5C16 0.671573 15.3284 0 14.5 0H3ZM3 2C2.44772 2 2 2.44772 2 3V4H14V2H3Z" fill="#5C5F62"/>
<path d="M15 10H18V12H15C14.8267 12 14.5445 11.9398 14.3343 11.7885C14.1751 11.6739 14 11.4741 14 11C14 10.5259 14.1751 10.3261 14.3343 10.2115C14.5445 10.0602 14.8267 10 15 10Z" fill="#5C5F62"/>
</svg>
