<svg width="20" height="18" viewBox="0 0 20 18" fill="none" xmlns="http://www.w3.org/2000/svg">
<path d="M0 4.99993H20C20 4.39597 19.6323 3.85285 19.0715 3.62854L10.5571 0.222764C10.1995 0.0797169 9.80053 0.0797168 9.44291 0.222764L0.928477 3.62854C0.367709 3.85285 0 4.39597 0 4.99993Z" fill="#496017"/>
<path fill-rule="evenodd" clip-rule="evenodd" d="M0 6.99993L1.74344e-05 7.99993C1.74344e-05 8.55224 0.447771 8.99993 1.00002 8.99993V15.9999C0.447771 15.9999 1.74344e-05 16.4476 1.74344e-05 16.9999C1.74344e-05 17.5522 0.447771 17.9999 1.00002 17.9999H19C19.5523 17.9999 20 17.5522 20 16.9999C20 16.4476 19.5523 15.9999 19 15.9999V8.99993C19.5523 8.99993 20 8.55224 20 7.99993V6.99993H0ZM4 8.99994H6V15.9999H4V8.99994ZM11 8.99994H9V15.9999H11V8.99994ZM14 8.99994H16V15.9999H14V8.99994Z" fill="#496017"/>
</svg>
