<svg width="42" height="31" viewBox="0 0 42 31" fill="none" xmlns="http://www.w3.org/2000/svg">
<path d="M35.6667 8.16634H39.3334V4.49967L35.6667 0.833008H4.50004C3.52758 0.833008 2.59495 1.21932 1.90732 1.90695C1.21968 2.59458 0.833374 3.52721 0.833374 4.49967V20.9997C0.833374 21.9721 1.21968 22.9048 1.90732 23.5924C2.59495 24.28 3.52758 24.6663 4.50004 24.6663H6.33337C6.33337 26.125 6.91284 27.524 7.94429 28.5554C8.97574 29.5869 10.3747 30.1663 11.8334 30.1663C13.2921 30.1663 14.691 29.5869 15.7225 28.5554C16.7539 27.524 17.3334 26.125 17.3334 24.6663H26.5C26.5 26.125 27.0795 27.524 28.111 28.5554C29.1424 29.5869 30.5413 30.1663 32 30.1663C33.4587 30.1663 34.8577 29.5869 35.8891 28.5554C36.9206 27.524 37.5 26.125 37.5 24.6663H41.1667V15.4997M11.8334 27.4163C11.104 27.4163 10.4046 27.1266 9.88883 26.6109C9.37311 26.0952 9.08337 25.3957 9.08337 24.6663C9.08337 23.937 9.37311 23.2375 9.88883 22.7218C10.4046 22.2061 11.104 21.9163 11.8334 21.9163C12.5627 21.9163 13.2622 22.2061 13.7779 22.7218C14.2936 23.2375 14.5834 23.937 14.5834 24.6663C14.5834 25.3957 14.2936 26.0952 13.7779 26.6109C13.2622 27.1266 12.5627 27.4163 11.8334 27.4163ZM15.5 15.4997H4.50004V9.99967H15.5M24.6667 20.9997H19.1667V9.99967H24.6667M32 27.4163C31.4561 27.4163 30.9245 27.2551 30.4722 26.9529C30.02 26.6507 29.6675 26.2212 29.4594 25.7187C29.2512 25.2162 29.1968 24.6633 29.3029 24.1298C29.409 23.5964 29.6709 23.1064 30.0555 22.7218C30.4401 22.3372 30.9301 22.0753 31.4635 21.9692C31.997 21.8631 32.5499 21.9175 33.0524 22.1257C33.5549 22.3338 33.9844 22.6863 34.2866 23.1385C34.5888 23.5908 34.75 24.1224 34.75 24.6663C34.7315 25.3898 34.4358 26.0786 33.924 26.5903C33.4123 27.1021 32.7235 27.3978 32 27.4163ZM30.1667 15.4997V10.9163H34.75L38.4167 15.4997H30.1667Z" fill="#888888"/>
</svg>
