<svg width="16" height="16" viewBox="0 0 16 16" fill="none" xmlns="http://www.w3.org/2000/svg">
<path fill-rule="evenodd" clip-rule="evenodd" d="M14 9.5H12.5V11H14C15.1046 11 16 10.1046 16 9V2C16 0.895431 15.1046 0 14 0H7C5.89543 0 5 0.895431 5 2V3.5H6.5V2C6.5 1.72386 6.72386 1.5 7 1.5H14C14.2761 1.5 14.5 1.72386 14.5 2V9C14.5 9.27614 14.2761 9.5 14 9.5ZM2 14.5H9C9.27614 14.5 9.5 14.2761 9.5 14V7C9.5 6.72386 9.27614 6.5 9 6.5H2C1.72386 6.5 1.5 6.72386 1.5 7V14C1.5 14.2761 1.72386 14.5 2 14.5ZM0 14C0 15.1046 0.895431 16 2 16H9C10.1046 16 11 15.1046 11 14V7C11 5.89543 10.1046 5 9 5H2C0.895431 5 0 5.89543 0 7V14Z" fill="#4D5061"/>
</svg>
