<svg width="20" height="21" viewBox="0 0 20 21" fill="none" xmlns="http://www.w3.org/2000/svg">
<path fill-rule="evenodd" clip-rule="evenodd" d="M11.875 1.75C11.875 1.05964 12.4346 0.5 13.125 0.5H18.125C18.8154 0.5 19.375 1.05964 19.375 1.75L19.375 9.25C19.375 9.94036 18.8154 10.5 18.125 10.5H14.0625V4.875C14.0625 3.99727 13.528 3.21422 12.9067 2.68171C12.604 2.42219 12.2509 2.19591 11.875 2.03134V1.75ZM17.5 3C17.8452 3 18.125 2.72018 18.125 2.375C18.125 2.02982 17.8452 1.75 17.5 1.75C17.1548 1.75 16.875 2.02982 16.875 2.375C16.875 2.72018 17.1548 3 17.5 3ZM17.5 4.25C17.8452 4.25 18.125 4.52982 18.125 4.875V8.625C18.125 8.97018 17.8452 9.25 17.5 9.25C17.1548 9.25 16.875 8.97018 16.875 8.625V4.875C16.875 4.52982 17.1548 4.25 17.5 4.25Z" fill="#7272FD"/>
<path d="M3.77193 7.375C3.77193 6.68464 4.32176 6.125 5 6.125H8.77193C9.45017 6.125 10 6.68464 10 7.375V8.62492C10 9.31528 9.45017 9.87492 8.77193 9.87492H5C4.32176 9.87492 3.77193 9.31528 3.77193 8.62492V7.375Z" fill="#7272FD"/>
<path d="M6.25 12.6875C6.25 13.2053 5.83027 13.625 5.3125 13.625C4.79473 13.625 4.375 13.2053 4.375 12.6875C4.375 12.1697 4.79473 11.75 5.3125 11.75C5.83027 11.75 6.25 12.1697 6.25 12.6875Z" fill="#7272FD"/>
<path d="M8.4375 13.625C8.95527 13.625 9.375 13.2053 9.375 12.6875C9.375 12.1697 8.95527 11.75 8.4375 11.75C7.91973 11.75 7.5 12.1697 7.5 12.6875C7.5 13.2053 7.91973 13.625 8.4375 13.625Z" fill="#7272FD"/>
<path d="M6.25 16.4375C6.25 16.9553 5.83027 17.375 5.3125 17.375C4.79473 17.375 4.375 16.9553 4.375 16.4375C4.375 15.9197 4.79473 15.5 5.3125 15.5C5.83027 15.5 6.25 15.9197 6.25 16.4375Z" fill="#7272FD"/>
<path d="M8.4375 17.375C8.95527 17.375 9.375 16.9553 9.375 16.4375C9.375 15.9197 8.95527 15.5 8.4375 15.5C7.91973 15.5 7.5 15.9197 7.5 16.4375C7.5 16.9553 7.91973 17.375 8.4375 17.375Z" fill="#7272FD"/>
<path fill-rule="evenodd" clip-rule="evenodd" d="M3.08114 2.99992H10.318C11.855 2.99999 13.0811 3.65553 13.0811 5.49992V17.9999C13.0811 19.3806 11.9815 20.4999 10.625 20.4999H3.08114C1.72465 20.4999 0.625 19.3806 0.625 17.9999V5.49992C0.625 4.11921 1.72465 2.99992 3.08114 2.99992ZM3.08114 4.87492H10.625C10.9641 4.87492 11.239 5.15475 11.239 5.49992V17.9999C11.239 18.3451 10.9641 18.6249 10.625 18.6249H3.08114C2.74202 18.6249 2.46711 18.3451 2.46711 17.9999V5.49992C2.46711 5.15475 2.74202 4.87492 3.08114 4.87492Z" fill="#7272FD"/>
</svg>
